<?xml version="1.0" encoding="utf-8"?>
<!-- Generator: Adobe Illustrator 16.0.0, SVG Export Plug-In . SVG Version: 6.00 Build 0)  -->
<!DOCTYPE svg PUBLIC "-//W3C//DTD SVG 1.1//EN" "http://www.w3.org/Graphics/SVG/1.1/DTD/svg11.dtd">
<svg version="1.1" id="Layer_1" xmlns="http://www.w3.org/2000/svg" xmlns:xlink="http://www.w3.org/1999/xlink" x="0px" y="0px"
     width="32.012px" height="32.013px" viewBox="0 0 32.012 32.013" enable-background="new 0 0 32.012 32.013" xml:space="preserve">
<path fill-rule="evenodd" clip-rule="evenodd" d="M31.811,18.547c-0.547-0.173-4.954-1.487-9.97-0.685
    c2.094,5.753,2.946,10.439,3.109,11.413C28.542,26.848,31.098,23.001,31.811,18.547z M22.259,30.741
    c-0.238-1.404-1.167-6.299-3.415-12.139c-0.035,0.012-0.07,0.023-0.105,0.036c-9.028,3.146-12.27,9.407-12.557,9.996
    c2.714,2.116,6.125,3.379,9.825,3.379C18.224,32.013,20.337,31.56,22.259,30.741z M4.115,26.709
    c0.362-0.621,4.755-7.895,13.011-10.562c0.208-0.068,0.419-0.131,0.631-0.191c-0.402-0.909-0.839-1.819-1.298-2.716
    c-7.994,2.392-15.75,2.292-16.451,2.277C0.003,15.68,0,15.843,0,16.006C0,20.118,1.559,23.871,4.115,26.709z M0.338,12.728
    c0.716,0.009,7.311,0.038,14.798-1.95C12.484,6.063,9.624,2.1,9.202,1.521C4.724,3.633,1.376,7.761,0.338,12.728z M12.256,0.445
    c0.442,0.592,3.35,4.551,5.973,9.371c5.692-2.133,8.101-5.372,8.389-5.782C23.791,1.525,20.074,0,16.007,0
    C14.715,0,13.459,0.155,12.256,0.445z M28.397,5.884c-0.337,0.456-3.02,3.895-8.938,6.312c0.373,0.762,0.729,1.538,1.062,2.318
    c0.118,0.276,0.232,0.552,0.345,0.826c5.326-0.669,10.618,0.404,11.146,0.516C31.977,12.077,30.626,8.608,28.397,5.884z"/>
</svg>
