<?xml version="1.0" encoding="utf-8"?>
<!-- Generator: Adobe Illustrator 16.0.0, SVG Export Plug-In . SVG Version: 6.00 Build 0)  -->
<!DOCTYPE svg PUBLIC "-//W3C//DTD SVG 1.1//EN" "http://www.w3.org/Graphics/SVG/1.1/DTD/svg11.dtd">
<svg version="1.1" id="Layer_1" xmlns="http://www.w3.org/2000/svg" xmlns:xlink="http://www.w3.org/1999/xlink" x="0px" y="0px"
     width="33.017px" height="32.025px" viewBox="0 0 33.017 32.025" enable-background="new 0 0 33.017 32.025" xml:space="preserve">
<path fill-rule="evenodd" clip-rule="evenodd" d="M16.507,0C7.392,0,0,7.351,0,16.419c0,7.253,4.729,13.407,11.29,15.578
    c0.826,0.151,1.127-0.356,1.127-0.792c0-0.39-0.014-1.422-0.022-2.792c-4.592,0.992-5.561-2.201-5.561-2.201
    C6.083,24.315,5,23.811,5,23.811c-1.499-1.019,0.114-0.998,0.114-0.998c1.657,0.116,2.528,1.692,2.528,1.692
    c1.473,2.509,3.864,1.785,4.805,1.364c0.15-1.061,0.576-1.784,1.048-2.195c-3.666-0.414-7.52-1.823-7.52-8.114
    c0-1.792,0.643-3.258,1.699-4.405c-0.17-0.416-0.736-2.084,0.162-4.345c0,0,1.386-0.441,4.54,1.683
    c1.316-0.364,2.729-0.546,4.133-0.553c1.402,0.006,2.814,0.189,4.133,0.553c3.152-2.125,4.535-1.683,4.535-1.683
    c0.901,2.261,0.334,3.93,0.165,4.345c1.058,1.147,1.697,2.613,1.697,4.405c0,6.307-3.86,7.695-7.538,8.102
    c0.593,0.507,1.121,1.509,1.121,3.041c0,2.195-0.021,3.965-0.021,4.503c0,0.439,0.297,0.95,1.135,0.79
    c6.554-2.175,11.28-8.325,11.28-15.576C33.017,7.351,25.625,0,16.507,0z"/>
</svg>