<?xml version="1.0" encoding="utf-8"?>
<!-- Generator: Adobe Illustrator 16.0.0, SVG Export Plug-In . SVG Version: 6.00 Build 0)  -->
<!DOCTYPE svg PUBLIC "-//W3C//DTD SVG 1.1//EN" "http://www.w3.org/Graphics/SVG/1.1/DTD/svg11.dtd">
<svg version="1.1" id="Layer_1" xmlns="http://www.w3.org/2000/svg" xmlns:xlink="http://www.w3.org/1999/xlink" x="0px" y="0px"
     width="32px" height="32px" viewBox="0 0 32 32" enable-background="new 0 0 32 32" xml:space="preserve">
<path fill-rule="evenodd" clip-rule="evenodd" d="M16,32C7.164,32,0,24.836,0,16S7.164,0,16,0c8.837,0,16,7.164,16,16
    S24.837,32,16,32z M25.396,9.137c-0.794,0.505-2.527,0.866-2.527,0.866c-0.241-0.625-2.816-1.974-5.006-0.65
    c-2.19,1.324-1.733,4.26-1.733,4.26C10.979,13.3,8.018,9.57,8.018,9.57c-1.588,3.152,1.083,5.223,1.083,5.223
    c-0.505,0.024-1.612-0.458-1.612-0.458c-0.144,2.984,2.985,3.923,2.985,3.923c-0.385,0.265-1.637,0.072-1.637,0.072
    c0.65,2.527,3.61,2.768,3.61,2.768c-1.95,1.781-5.728,1.613-5.728,1.613c2.094,1.396,4.886,2.094,8.616,1.492
    s6.234-3.971,6.739-4.669c0.505-0.698,1.612-3.634,1.733-4.212c0.12-0.578,0.168-2.647,0.168-2.647
    c0.963-0.674,1.925-1.998,1.925-1.998c-0.168,0.144-2.094,0.529-2.094,0.529C24.818,10.628,25.396,9.137,25.396,9.137z"/>
</svg>
