<?xml version="1.0" encoding="utf-8"?>
<!-- Generator: Adobe Illustrator 16.0.0, SVG Export Plug-In . SVG Version: 6.00 Build 0)  -->
<!DOCTYPE svg PUBLIC "-//W3C//DTD SVG 1.1//EN" "http://www.w3.org/Graphics/SVG/1.1/DTD/svg11.dtd">
<svg version="1.1" id="Layer_1" xmlns="http://www.w3.org/2000/svg" xmlns:xlink="http://www.w3.org/1999/xlink" x="0px" y="0px"
     width="7.995px" height="8px" viewBox="0 0 7.995 8" enable-background="new 0 0 7.995 8" xml:space="preserve">
<path fill-rule="evenodd" clip-rule="evenodd" d="M0.074,4.551l4.142-4.142C4.315,0.31,4.511,0.218,4.65,0.205l2.24-0.204
    c0.14-0.013,0.335,0.058,0.434,0.157l0.511,0.511c0.099,0.1,0.17,0.295,0.157,0.434L7.794,3.35C7.781,3.489,7.69,3.684,7.591,3.783
    L3.449,7.926c-0.099,0.099-0.261,0.099-0.36,0L0.074,4.911C-0.024,4.812-0.024,4.65,0.074,4.551z M6.261,1.748
    c0.216,0.217,0.565,0.216,0.781,0c0.216-0.215,0.216-0.565,0-0.781c-0.216-0.216-0.565-0.216-0.781,0S6.045,1.533,6.261,1.748z"/>
</svg>